<svg xmlns="http://www.w3.org/2000/svg" stroke="#000" viewBox="0 0 6.35 6.35"><path d="M3.175 0A3.179 3.179 0 000 3.174 3.18 3.18 0 003.175 6.35a3.18 3.18 0 003.176-3.176A3.179 3.179 0 003.175 0zm.526.582c.264.053.512.144.74.268.166.342.294.676.383 1.002h.643c.096.166.175.342.234.529h-.763a4.8 4.8 0 01-.01 1.588H5.7a2.627 2.627 0 01-.234.53H4.81c-.097.347-.23.682-.384 1.007-.225.121-.469.21-.727.262.233-.414.431-.835.571-1.27H2.013c.138.429.333.843.562 1.252a2.626 2.626 0 01-.744-.297 6.37 6.37 0 01-.357-.955h-.59A2.629 2.629 0 01.65 3.97h.706a4.8 4.8 0 01-.01-1.588H.648c.059-.187.139-.363.235-.53h.576c.084-.307.204-.622.355-.944.232-.139.486-.243.757-.306a6 6 0 00-.57 1.25h2.28a6.011 6.011 0 00-.58-1.269zM1.864 2.381a4.095 4.095 0 00.01 1.588H4.41c.1-.503.116-1.028.01-1.588z" style="line-height:normal;font-variant-ligatures:normal;font-variant-position:normal;font-variant-caps:normal;font-variant-numeric:normal;font-variant-alternates:normal;font-variant-east-asian:normal;font-feature-settings:normal;font-variation-settings:normal;text-indent:0;text-align:start;text-decoration-line:none;text-decoration-style:solid;text-decoration-color:#00f;text-transform:none;text-orientation:mixed;white-space:normal;shape-padding:0;shape-margin:0;inline-size:0;isolation:auto;mix-blend-mode:normal;solid-color:blue;solid-opacity:1" fill="#be123c" stroke="none" stroke-linecap="round" stroke-linejoin="round" stroke-width=".529" color="red" font-family="sans-serif" font-weight="400" overflow="visible" paint-order="stroke fill markers" stop-color="red"/></svg>