<svg xmlns="http://www.w3.org/2000/svg" viewBox="0 0 300 300"><path d="M261.579 49.864l-2.106-2.294C232.082 18.315 193.143 0 150 0c-17.166 0-33.664 2.907-49.038 8.24l-1.562.551C49.188 26.839 11.303 70.949 2.14 124.729c-.011.051-.027.1-.037.151-.033.171-.046.341-.073.512A150.345 150.345 0 000 150c0 35.76 12.586 68.632 33.551 94.435.01.015 1.746 2.109 1.746 2.109C62.835 279.208 104.032 300 150 300c17.371 0 34.058-2.978 49.588-8.434.409-.126.811-.266 1.204-.425 49.269-17.785 86.632-60.673 96.577-113.148.026-.128.052-.255.074-.383A150.274 150.274 0 00300 150c0-38.45-14.548-73.562-38.421-100.136zM150 30c30.85 0 59.016 11.705 80.297 30.903-14.903 20.417-35.74 33.843-58.563 42.503a409.806 409.806 0 00-11.248-24.113c-10.561-20.802-20.929-36.741-29.015-47.862A120.45 120.45 0 01150 30zm-49.264 10.584c8.947 11.182 25.92 34.926 41.948 71.28-42.085 9.028-85.24 6.035-107.548 3.387 10.092-33.291 34.283-60.511 65.6-74.667zM30 150c0-1.705.045-3.399.115-5.087 11.955 1.495 29.682 3.118 50.351 3.118 10.008 0 20.708-.381 31.766-1.341 14.739-1.28 28.634-3.492 41.664-6.579a435.646 435.646 0 018.2 25.56c-13.517 3.932-27.477 8.844-41.867 14.745-31.025 12.72-56.322 26.958-70.444 35.512C37.287 196.993 30 174.333 30 150zm120 120c-30.873 0-59.058-11.722-80.345-30.946 20.018-11.762 57.599-31.811 99.783-44.21 4.703 21.642 8.265 45.477 10.066 71.482A119.807 119.807 0 01150 270zm58.678-15.359c-2.107-24.185-5.666-46.483-10.127-66.84 22.086-4.117 44.601-5.342 65.867-1.608-9.268 29.232-29.45 53.648-55.74 68.448zm61.133-97.971c-23.811-4.235-50.07-3.583-78.585 1.922a471.23 471.23 0 00-8.64-27.251c28.155-10.772 50.939-26.637 67.658-47.223C262.725 103.042 270 125.686 270 150c0 2.238-.066 4.461-.189 6.67z"/></svg>