<svg xmlns="http://www.w3.org/2000/svg" fill="none" viewBox="0 0 131 44"><g fill="#000" clip-path="url(#a)"><path d="M56.018 23.012c0 6.228-4.774 10.818-10.634 10.818S34.75 29.24 34.75 23.012c0-6.273 4.775-10.818 10.634-10.818 5.86 0 10.634 4.545 10.634 10.818zm-4.655 0c0-3.892-2.767-6.556-5.979-6.556s-5.979 2.664-5.979 6.556c0 3.853 2.767 6.555 5.98 6.555 3.211 0 5.978-2.707 5.978-6.555zM78.96 23.012c0 6.228-4.775 10.818-10.634 10.818-5.86 0-10.635-4.59-10.635-10.818 0-6.268 4.775-10.818 10.635-10.818 5.86 0 10.634 4.545 10.634 10.818zm-4.655 0c0-3.892-2.768-6.556-5.98-6.556-3.211 0-5.978 2.664-5.978 6.556 0 3.853 2.767 6.555 5.979 6.555 3.211 0 5.979-2.707 5.979-6.555zM100.945 12.847V32.27c0 7.99-4.617 11.253-10.075 11.253-5.138 0-8.23-3.507-9.396-6.375l4.053-1.722c.721 1.76 2.49 3.838 5.338 3.838 3.494 0 5.66-2.2 5.66-6.34v-1.556h-.163c-1.042 1.312-3.05 2.458-5.583 2.458-5.3 0-10.156-4.712-10.156-10.774 0-6.107 4.856-10.857 10.156-10.857 2.529 0 4.536 1.146 5.583 2.419h.162v-1.76h4.421v-.006zm-4.091 10.204c0-3.81-2.49-6.595-5.659-6.595-3.212 0-5.902 2.785-5.902 6.595 0 3.77 2.69 6.516 5.902 6.516 3.169 0 5.659-2.746 5.659-6.516zM108.234 1.463v31.704h-4.541V1.463h4.541zM125.926 26.572l3.613 2.459c-1.166 1.76-3.976 4.794-8.832 4.794-6.022 0-10.519-4.75-10.519-10.818 0-6.434 4.535-10.818 9.998-10.818 5.501 0 8.192 4.468 9.071 6.882l.483 1.229-14.171 5.99c1.085 2.17 2.772 3.277 5.138 3.277 2.371 0 4.015-1.19 5.219-2.995zm-11.122-3.892l9.473-4.014c-.521-1.351-2.088-2.292-3.933-2.292-2.366 0-5.659 2.131-5.54 6.306zM17.564 20.198v-4.59h15.155c.148.8.225 1.746.225 2.77 0 3.444-.923 7.702-3.895 10.736-2.892 3.072-6.587 4.711-11.48 4.711-9.072 0-16.7-7.54-16.7-16.798C.87 7.77 8.497.23 17.57.23c5.018 0 8.593 2.01 11.279 4.63l-3.174 3.238c-1.926-1.844-4.535-3.278-8.11-3.278-6.625 0-11.806 5.448-11.806 12.208s5.181 12.209 11.806 12.209c4.296 0 6.743-1.761 8.311-3.361 1.271-1.297 2.108-3.15 2.438-5.682l-10.75.005z"/></g><defs><clipPath id="a"><path fill="#fff" d="M0 0h130v43.853H0z" transform="translate(.697)"/></clipPath></defs></svg>