<svg xmlns="http://www.w3.org/2000/svg" fill="#b91c1c" stroke="#b91c1c" viewBox="0 0 512 512"><path d="M387.187 68.12c-4.226 0-8.328.524-12.249 1.511V55.44c0-27.622-22.472-50.094-50.094-50.094a49.851 49.851 0 00-27.834 8.461C288.017 5.252 275.869 0 262.508 0c-22.84 0-42.156 15.365-48.16 36.302a49.837 49.837 0 00-16.844-2.912c-27.622 0-50.094 22.472-50.094 50.094v82.984a53.173 53.173 0 00-19.318-3.616c-29.43 0-53.373 23.936-53.373 53.366v99.695c0 63.299 38.525 185.645 184.315 195.649 4.274.289 8.586.438 12.813.438 91.218 0 165.435-72.378 165.435-161.35V118.214c-.001-27.622-22.472-50.094-50.095-50.094zM271.846 483.947c-3.585 0-7.209-.126-10.896-.376-134.659-9.237-158.179-126.668-158.179-167.659v-99.695c0-13.979 11.341-25.313 25.32-25.313 13.98 0 25.321 11.334 25.321 25.313v76.997h22.05V83.485c0-12.172 9.87-22.042 22.041-22.042 12.172 0 22.042 9.87 22.042 22.042v152.959h20.922V50.094c0-12.172 9.87-22.041 22.041-22.041 12.172 0 22.042 9.87 22.042 22.041v186.35h18.253V55.44c0-12.172 9.87-22.041 22.042-22.041 12.171 0 22.041 9.87 22.041 22.041v181.004h18.261v-118.23c0-12.172 9.87-22.042 22.041-22.042 12.172 0 22.042 9.87 22.042 22.042V350.65c-.001 69.098-55.785 133.297-137.384 133.297z" class="st0"/></svg>