<svg xmlns="http://www.w3.org/2000/svg" width="60" height="54" fill="none" viewBox="0 0 60 54">
    <g opacity=".85">
        <mask id="a" fill="#fff">
            <path d="M49.642 17.473c-.67-.268-1.342-.402-1.878-.67.134-.403.268-.94.268-1.342C49.508 8.35 48.57 2.58 45.215.702c-3.086-1.878-8.319.135-13.551 4.562-.537.403-.94.94-1.476 1.342l-.94-.94C23.749.837 18.382-1.175 15.028.703c-3.086 1.879-4.025 7.245-2.818 13.954l.403 2.012c-.805.269-1.476.403-2.281.671C4.025 19.754 0 23.243 0 26.865c0 3.757 4.428 7.514 11.002 9.795.537.134 1.073.402 1.61.536-.134.671-.403 1.476-.537 2.147-1.207 6.708-.268 11.94 2.818 13.685 3.22 1.878 8.72 0 13.953-4.696l1.208-1.207c.536.536 1.073 1.073 1.61 1.475 5.098 4.428 10.197 6.172 13.282 4.428 3.22-1.878 4.294-7.513 2.952-14.49l-.403-1.61c.403-.134.806-.268 1.074-.403 6.977-2.28 11.404-6.037 11.404-9.794.403-3.488-3.756-7.11-10.33-9.258zM33.408 7.277c4.427-3.891 8.587-5.367 10.465-4.294 2.013 1.208 2.818 5.904 1.476 12.075-.134.403-.134.805-.268 1.208-2.55-.537-5.233-1.073-8.05-1.342-1.61-2.415-3.355-4.561-5.099-6.306.537-.536 1.073-.939 1.476-1.341zM19.186 26.865c.805-1.61 1.61-3.22 2.55-4.83.938-1.61 1.878-3.22 2.95-4.696 1.745-.134 3.623-.268 5.502-.268 1.878 0 3.756.134 5.5.268.94 1.476 2.013 3.086 2.952 4.696.94 1.61 1.879 3.22 2.55 4.83-.805 1.61-1.61 3.22-2.55 4.83-.939 1.61-1.878 3.22-2.951 4.696-1.745.134-3.623.134-5.501.134-1.878 0-3.757 0-5.501-.134-1.073-1.476-2.013-3.086-2.952-4.696-.939-1.61-1.744-3.22-2.549-4.83zm-1.342 3.086c.537 1.073 1.074 2.147 1.745 3.086.67 1.073 1.207 2.147 1.878 3.086-2.013-.268-3.891-.537-5.501-.94.403-1.61 1.073-3.488 1.878-5.232zm0-6.038c-.805-1.744-1.341-3.488-1.878-5.232 1.744-.402 3.623-.67 5.5-.94-.67.94-1.207 2.013-1.877 3.087-.671.939-1.208 2.012-1.745 3.085zm22.943 9.124c.671-1.073 1.208-2.147 1.744-3.22.805 1.878 1.476 3.623 2.013 5.367-1.744.402-3.623.67-5.635.939.67-1.073 1.342-2.013 1.878-3.086zm1.744-9.123c-.536-1.074-1.073-2.147-1.744-3.086-.536-1.074-1.207-2.013-1.878-3.086 1.878.268 3.757.537 5.5.939-.402 1.61-1.073 3.354-1.878 5.232zM30.188 10.361c1.207 1.342 2.415 2.684 3.488 4.294-1.207 0-2.415-.134-3.622-.134-1.208 0-2.415 0-3.489.134 1.208-1.476 2.415-2.952 3.623-4.293zm-13.82-7.379c2.013-1.207 6.44.537 11.137 4.696.268.269.536.537.939.805a61.358 61.358 0 0 0-5.099 6.306c-2.817.268-5.5.67-8.05 1.208-.134-.671-.268-1.208-.402-1.879-1.208-5.635-.537-10.062 1.476-11.136zm-2.951 31.664a22.067 22.067 0 0 1-1.476-.402c-2.952-.94-5.367-2.281-6.977-3.757-1.476-1.342-2.28-2.55-2.28-3.623 0-2.146 3.22-4.964 8.72-6.842.671-.269 1.342-.403 2.013-.671.805 2.415 1.744 4.964 2.952 7.647-1.208 2.55-2.281 5.099-2.952 7.648zM27.37 46.32c-2.28 2.012-4.696 3.488-6.708 4.293-1.878.67-3.354.67-4.293.134-1.879-1.073-2.684-5.367-1.61-11.002l.402-2.012c2.415.537 5.233.939 8.184 1.207 1.61 2.415 3.355 4.562 5.233 6.44-.537.269-.805.671-1.208.94zm2.952-2.818c-1.207-1.342-2.415-2.817-3.622-4.293 1.207 0 2.28.134 3.488.134 1.207 0 2.415 0 3.622-.134-1.207 1.476-2.28 2.951-3.488 4.293zm15.564 3.623c-.403 1.878-1.074 3.22-2.013 3.756-1.878 1.074-6.038-.268-10.331-4.159-.537-.402-1.073-.94-1.476-1.342 1.744-1.878 3.354-4.025 5.099-6.44a70.38 70.38 0 0 0 8.184-1.207c.134.537.268.939.268 1.476.671 2.951.671 5.635.269 7.916zm2.28-12.88a2.53 2.53 0 0 1-1.073.268c-.805-2.415-1.744-4.964-3.086-7.648 1.208-2.549 2.147-5.098 2.952-7.513.67.134 1.207.402 1.744.537 5.635 1.878 8.99 4.83 8.99 6.976.134 2.281-3.623 5.367-9.527 7.38z"/>
        </mask>
        <path fill="#000" stroke="#fff" d="M49.642 17.473c-.67-.268-1.342-.402-1.878-.67.134-.403.268-.94.268-1.342C49.508 8.35 48.57 2.58 45.215.702c-3.086-1.878-8.319.135-13.551 4.562-.537.403-.94.94-1.476 1.342l-.94-.94C23.749.837 18.382-1.175 15.028.703c-3.086 1.879-4.025 7.245-2.818 13.954l.403 2.012c-.805.269-1.476.403-2.281.671C4.025 19.754 0 23.243 0 26.865c0 3.757 4.428 7.514 11.002 9.795.537.134 1.073.402 1.61.536-.134.671-.403 1.476-.537 2.147-1.207 6.708-.268 11.94 2.818 13.685 3.22 1.878 8.72 0 13.953-4.696l1.208-1.207c.536.536 1.073 1.073 1.61 1.475 5.098 4.428 10.197 6.172 13.282 4.428 3.22-1.878 4.294-7.513 2.952-14.49l-.403-1.61c.403-.134.806-.268 1.074-.403 6.977-2.28 11.404-6.037 11.404-9.794.403-3.488-3.756-7.11-10.33-9.258zM33.408 7.277c4.427-3.891 8.587-5.367 10.465-4.294 2.013 1.208 2.818 5.904 1.476 12.075-.134.403-.134.805-.268 1.208-2.55-.537-5.233-1.073-8.05-1.342-1.61-2.415-3.355-4.561-5.099-6.306.537-.536 1.073-.939 1.476-1.341zM19.186 26.865c.805-1.61 1.61-3.22 2.55-4.83.938-1.61 1.878-3.22 2.95-4.696 1.745-.134 3.623-.268 5.502-.268 1.878 0 3.756.134 5.5.268.94 1.476 2.013 3.086 2.952 4.696.94 1.61 1.879 3.22 2.55 4.83-.805 1.61-1.61 3.22-2.55 4.83-.939 1.61-1.878 3.22-2.951 4.696-1.745.134-3.623.134-5.501.134-1.878 0-3.757 0-5.501-.134-1.073-1.476-2.013-3.086-2.952-4.696-.939-1.61-1.744-3.22-2.549-4.83zm-1.342 3.086c.537 1.073 1.074 2.147 1.745 3.086.67 1.073 1.207 2.147 1.878 3.086-2.013-.268-3.891-.537-5.501-.94.403-1.61 1.073-3.488 1.878-5.232zm0-6.038c-.805-1.744-1.341-3.488-1.878-5.232 1.744-.402 3.623-.67 5.5-.94-.67.94-1.207 2.013-1.877 3.087-.671.939-1.208 2.012-1.745 3.085zm22.943 9.124c.671-1.073 1.208-2.147 1.744-3.22.805 1.878 1.476 3.623 2.013 5.367-1.744.402-3.623.67-5.635.939.67-1.073 1.342-2.013 1.878-3.086zm1.744-9.123c-.536-1.074-1.073-2.147-1.744-3.086-.536-1.074-1.207-2.013-1.878-3.086 1.878.268 3.757.537 5.5.939-.402 1.61-1.073 3.354-1.878 5.232zM30.188 10.361c1.207 1.342 2.415 2.684 3.488 4.294-1.207 0-2.415-.134-3.622-.134-1.208 0-2.415 0-3.489.134 1.208-1.476 2.415-2.952 3.623-4.293zm-13.82-7.379c2.013-1.207 6.44.537 11.137 4.696.268.269.536.537.939.805a61.358 61.358 0 0 0-5.099 6.306c-2.817.268-5.5.67-8.05 1.208-.134-.671-.268-1.208-.402-1.879-1.208-5.635-.537-10.062 1.476-11.136zm-2.951 31.664a22.067 22.067 0 0 1-1.476-.402c-2.952-.94-5.367-2.281-6.977-3.757-1.476-1.342-2.28-2.55-2.28-3.623 0-2.146 3.22-4.964 8.72-6.842.671-.269 1.342-.403 2.013-.671.805 2.415 1.744 4.964 2.952 7.647-1.208 2.55-2.281 5.099-2.952 7.648zM27.37 46.32c-2.28 2.012-4.696 3.488-6.708 4.293-1.878.67-3.354.67-4.293.134-1.879-1.073-2.684-5.367-1.61-11.002l.402-2.012c2.415.537 5.233.939 8.184 1.207 1.61 2.415 3.355 4.562 5.233 6.44-.537.269-.805.671-1.208.94zm2.952-2.818c-1.207-1.342-2.415-2.817-3.622-4.293 1.207 0 2.28.134 3.488.134 1.207 0 2.415 0 3.622-.134-1.207 1.476-2.28 2.951-3.488 4.293zm15.564 3.623c-.403 1.878-1.074 3.22-2.013 3.756-1.878 1.074-6.038-.268-10.331-4.159-.537-.402-1.073-.94-1.476-1.342 1.744-1.878 3.354-4.025 5.099-6.44a70.38 70.38 0 0 0 8.184-1.207c.134.537.268.939.268 1.476.671 2.951.671 5.635.269 7.916zm2.28-12.88a2.53 2.53 0 0 1-1.073.268c-.805-2.415-1.744-4.964-3.086-7.648 1.208-2.549 2.147-5.098 2.952-7.513.67.134 1.207.402 1.744.537 5.635 1.878 8.99 4.83 8.99 6.976.134 2.281-3.623 5.367-9.527 7.38z" mask="url(#a)"/>
        <path fill="#000" d="M30.188 21.498c2.951 0 5.367 2.415 5.367 5.367s-2.416 5.366-5.367 5.366c-2.952 0-5.367-2.415-5.367-5.366 0-2.952 2.415-5.367 5.367-5.367z"/>
    </g>
</svg>
