<svg xmlns="http://www.w3.org/2000/svg" fill="none" viewBox="0 0 144 56"><g fill="#000" clip-path="url(#a)"><path d="M109.553.983c-1.801 0-3.242 1.524-3.242 3.364V33.7c0 1.869 1.468 3.364 3.242 3.364 1.801 0 3.242-1.524 3.242-3.364V4.347c.028-1.869-1.441-3.364-3.242-3.364zM60.474 8.228c-7.676 0-13.911 6.469-13.911 14.433 0 7.964 6.235 14.433 13.911 14.433 2.661 0 5.238-.805 7.4-2.243v5.635c0 4.227-3.326 7.677-7.4 7.677-4.073 0-7.399-3.45-7.399-7.677 0-.402.028-.776.083-1.15.277-1.84-.942-3.565-2.716-3.824-1.773-.287-3.436.978-3.685 2.818-.111.719-.167 1.438-.167 2.156 0 7.964 6.236 14.433 13.912 14.433 7.677 0 13.912-6.469 13.912-14.433V22.575c-.083-7.935-6.29-14.347-13.94-14.347zm7.123 16.56c-.056.202-.111.374-.194.575-1.081 2.962-3.88 4.946-6.929 4.946-4.073 0-7.399-3.45-7.399-7.677 0-4.226 3.326-7.676 7.4-7.676 4.073 0 7.399 3.45 7.399 7.676 0 .748-.083 1.466-.277 2.156zM89.933 8.228c-7.676 0-13.912 6.469-13.912 14.433 0 7.964 6.236 14.433 13.912 14.433 2.661 0 5.238-.805 7.4-2.243v5.635c0 4.227-3.326 7.677-7.4 7.677-4.073 0-7.399-3.45-7.399-7.677 0-.373.028-.776.083-1.15.277-1.84-.942-3.565-2.716-3.824-1.773-.287-3.436.978-3.685 2.818-.111.719-.167 1.438-.167 2.156 0 7.964 6.236 14.433 13.912 14.433 7.677 0 13.912-6.469 13.912-14.433V22.575c-.083-7.935-6.318-14.347-13.94-14.347zm7.095 16.56c-.055.202-.11.403-.194.575-1.08 2.962-3.88 4.946-6.928 4.946-4.074 0-7.4-3.45-7.4-7.677 0-4.226 3.326-7.676 7.4-7.676s7.4 3.45 7.4 7.676a6.976 6.976 0 01-.278 2.156zM31.042 8.229c-7.621 0-13.829 6.382-13.912 14.26V25.019c0 2.933-2.3 5.348-5.154 5.348-2.855 0-5.155-2.387-5.155-5.348V14.985h7.898c1.801 0 3.243-1.524 3.243-3.364 0-1.84-1.47-3.363-3.243-3.363H6.821V4.405c0-1.869-1.469-3.364-3.243-3.364-1.773 0-3.242 1.524-3.242 3.364v20.643c0 6.67 5.21 12.075 11.64 12.075 3.63 0 6.872-1.754 9.034-4.456 2.522 2.731 6.097 4.456 10.032 4.456 7.677 0 13.912-6.469 13.912-14.433 0-7.964-6.263-14.461-13.912-14.461zm0 22.109c-4.074 0-7.4-3.45-7.4-7.677 0-4.226 3.326-7.676 7.4-7.676s7.4 3.45 7.4 7.677c0 4.226-3.326 7.676-7.4 7.676zM125.931 22.632c0 1.869 1.469 3.364 3.243 3.364h10.669c1.802 0 3.243-1.524 3.243-3.364v-.086c-.056-7.906-6.263-14.347-13.912-14.347-7.677 0-13.912 6.47-13.912 14.433 0 7.964 6.235 14.433 13.912 14.433 3.796 0 7.316-1.553 9.949-4.37 1.247-1.323 1.219-3.479-.056-4.773a3.187 3.187 0 00-4.6.058c-1.413 1.495-3.298 2.328-5.293 2.328-4.074 0-7.4-3.45-7.4-7.676s3.326-7.676 7.4-7.676c2.91 0 5.432 1.753 6.651 4.312h-6.651c-1.774 0-3.243 1.524-3.243 3.364z"/></g><defs><clipPath id="a"><path fill="#fff" d="M0 0h143v54.051H0z" transform="translate(.336 .983)"/></clipPath></defs></svg>